<?xml version="1.0" encoding="utf-8"?>
<!-- Generator: Adobe Illustrator 15.0.2, SVG Export Plug-In . SVG Version: 6.00 Build 0)  -->
<!DOCTYPE svg PUBLIC "-//W3C//DTD SVG 1.1//EN" "http://www.w3.org/Graphics/SVG/1.1/DTD/svg11.dtd">
<svg version="1.1" id="Layer_1" xmlns="http://www.w3.org/2000/svg" xmlns:xlink="http://www.w3.org/1999/xlink" x="0px" y="0px"
	 width="595.917px" height="215.818px" viewBox="-246.417 -64.161 595.917 215.818"
	 enable-background="new -246.417 -64.161 595.917 215.818" xml:space="preserve">
<rect x="-19" y="14.749" fill="none" width="368.5" height="58"/>
<text transform="matrix(1 0 0 1 -19 69.4688)"><tspan x="0" y="0" fill="#FFFFFF" font-family="'NotoSerif-Italic'" font-size="72">open</tspan><tspan x="161.543" y="0" fill="#FFFFFF" font-family="'NotoSerif-BoldItalic'" font-size="72">STEM</tspan></text>
<g>
	<g>
		<path fill="#FFFFFF" d="M-138.508-64.161c-59.503,0-107.909,48.409-107.909,107.913c0,59.499,48.406,107.905,107.909,107.905
			c59.5,0,107.906-48.406,107.906-107.905C-30.603-15.751-79.009-64.161-138.508-64.161z M-138.508,144.244
			C-193.923,144.244-239,99.162-239,43.752c0-55.411,45.081-100.494,100.491-100.494c55.411,0,100.491,45.083,100.491,100.494
			C-38.01,99.162-83.097,144.244-138.508,144.244z"/>
	</g>
</g>
<path fill="#FFFFFF" d="M-85.224,118.497c-0.706-1.928-2.827-2.92-4.75-2.221c-7.857,2.861-21.332,2.397-36.608-2.245
	c11.069-5.132,21.916-12.209,31.709-21.408l16.215,16.215c1.448,1.448,3.795,1.446,5.241,0c1.448-1.448,1.45-3.795,0.002-5.243
	l-16.171-16.172c8.316-8.812,15.173-18.579,20.526-28.517c3.028,13.522,3.036,26.276,0.368,36.308
	c-0.362,1.321,0.054,2.672,0.957,3.575c0.449,0.449,1.012,0.784,1.665,0.958c1.978,0.53,4.009-0.648,4.539-2.627
	c3.494-13.114,2.855-30.444-2.615-48.305c9.145-21.009,11.566-41.577,6.917-54.352c-0.702-1.925-2.824-2.917-4.747-2.217
	c-1.923,0.7-2.915,2.827-2.22,4.75c3.152,8.644,2.281,24.078-3.758,41.248c-5.23-12.653-12.979-25.183-23.464-36.349l17.997-17.997
	c1.451-1.45,1.451-3.794,0.005-5.24c-1.448-1.448-3.792-1.448-5.243,0.002L-96.61-3.39c-10.728-10.123-22.868-18.076-34.995-23.796
	c16.634-5.623,31.497-6.371,39.922-3.304c1.926,0.697,4.053-0.294,4.75-2.22c0.696-1.926-0.292-4.05-2.22-4.75
	c-12.37-4.501-32.055-2.358-52.367,6.09c-18.753-7.013-36.557-8.554-48.054-4.378c-1.923,0.705-2.917,2.824-2.22,4.755
	c0.7,1.918,2.832,2.915,4.752,2.212c7.705-2.8,20.8-2.421,35.71,1.968c-10.71,5.521-21.299,12.764-30.782,21.715l-16.241-16.241
	c-1.446-1.446-3.797-1.449-5.246-0.001c-1.448,1.448-1.443,3.798,0.003,5.243l16.288,16.288
	c-8.891,9.468-15.807,19.912-20.893,30.599c-3.197-12.522-3.67-24.807-0.824-35.46c0.525-1.98-0.647-4.008-2.626-4.538
	c-1.98-0.529-4.012,0.646-4.535,2.625c-3.912,14.655-2.483,31.57,3.392,48.275c-7.11,19.737-8.243,39.286-4.392,53.725
	c0.173,0.652,0.507,1.219,0.953,1.664c0.906,0.907,2.254,1.314,3.578,0.961c1.983-0.526,3.153-2.555,2.625-4.535
	c-2.994-11.234-2.607-25.891,1.606-41.218c5.524,11.796,13.238,23.185,22.814,33.323l-17.987,17.987
	c-1.446,1.445-1.451,3.795-0.002,5.243c1.447,1.448,3.794,1.44,5.24-0.006l17.949-17.949c10.202,9.622,21.665,17.271,33.196,22.921
	c-15.238,4.149-29.799,4.513-40.98,1.534c-1.978-0.526-4.003,0.647-4.533,2.627c-0.353,1.324,0.057,2.675,0.963,3.58
	c0.444,0.443,1.011,0.779,1.667,0.955c14.298,3.813,33.604,2.716,53.143-4.202c19.288,7.485,37.722,9.229,49.517,4.938
	C-85.516,122.547-84.527,120.418-85.224,118.497z M-72.036,48.33c-5.227,11.417-12.715,23.16-22.793,33.856l-38.435-38.435
	l36.608-36.608C-84.853,19.757-76.778,34.171-72.036,48.33z M-141.403-23.371c13.159,5.229,27.062,13.464,39.547,25.227
	l-36.649,36.649L-176.87,0.14C-165.672-10.408-153.329-18.12-141.403-23.371z M-204.825,41.466
	c4.888-12.478,12.379-24.95,22.759-36.037l38.319,38.319l-36.621,36.621C-191.266,68.769-199.629,55.211-204.825,41.466z
	 M-175.158,85.645l36.651-36.651l38.389,38.389c-11.278,10.555-23.987,18.133-36.67,23.009
	C-149.602,105.147-163.052,97.055-175.158,85.645z"/>
</svg>
